Coordinates
version=1
nRows=16
nColumns=40
inDegrees=yes

Units are S.I. units (second, meters, Newtons, ...)
If the header above contains a line with 'inDegrees', this indicates whether rotational values are in degrees (yes) or radians (no).

endheader
time	pelvis_tilt	pelvis_list	pelvis_rotation	pelvis_tx	pelvis_ty	pelvis_tz	hip_flexion_r	hip_adduction_r	hip_rotation_r	knee_angle_r	knee_angle_r_beta	ankle_angle_r	subtalar_angle_r	mtp_angle_r	hip_flexion_l	hip_adduction_l	hip_rotation_l	knee_angle_l	knee_angle_l_beta	ankle_angle_l	subtalar_angle_l	mtp_angle_l	lumbar_extension	lumbar_bending	lumbar_rotation	arm_flex_r	arm_add_r	arm_rot_r	elbow_flex_r	pro_sup_r	wrist_flex_r	wrist_dev_r	arm_flex_l	arm_add_l	arm_rot_l	elbow_flex_l	pro_sup_l	wrist_flex_l	wrist_dev_l
      0.00000000	    -26.69362865	      2.89990893	     -1.00030792	      0.07838711	      1.28278002	      0.00341606	     94.90076550	     -2.95778381	      6.74206305	     87.58088431	      1.52857479	     -5.82262648	    -14.92207576	      0.00000000	     63.82619050	     -1.60505315	      0.88951861	     66.45926323	      1.15993296	    -25.00263814	    -21.69739080	      0.00000000	    -31.79080260	     -5.13365886	      2.03188321	     65.81957584	     13.20618755	    -53.80395669	     41.99472421	     80.15920417	      0.00000000	      0.00000000	     61.21334555	      4.34777147	    -22.69977477	     36.66416983	      5.59535655	      0.00000000	      0.00000000
      0.01700000	    -26.14367297	      3.56525283	     -0.16861328	      0.07781933	      1.28370487	      0.00282806	     91.09780326	     -4.02806759	      7.19733677	     81.49081210	      1.42228298	     -7.29469464	    -14.55755736	      0.00000000	     65.79682299	      0.12375371	      2.41562446	     72.59115766	      1.26695471	    -23.70610360	    -21.75466449	      0.00000000	    -32.19105569	     -5.39617050	      1.03955524	     65.58458971	     13.13453744	    -53.80331819	     42.09967967	     79.76840986	      0.00000000	      0.00000000	     61.07803825	      4.37611792	    -22.50344373	     36.60593444	      6.12921897	      0.00000000	      0.00000000
      0.03300000	    -25.49346792	      4.00235498	      0.61697531	      0.07733603	      1.28469416	      0.00225706	     87.06306626	     -5.04870128	      7.34161276	     75.08643534	      1.31050552	     -9.09989469	    -14.54314603	      0.00000000	     67.59621443	      1.72270838	      3.95347360	     78.50158018	      1.37011104	    -22.78282902	    -21.20577142	      0.00000000	    -32.69005932	     -5.42085468	      0.18264528	     65.43915321	     13.05103448	    -53.83345326	     42.08920645	     79.42171877	      0.00000000	      0.00000000	     60.92080004	      4.41661652	    -22.33892868	     36.59043628	      6.55144098	      0.00000000	      0.00000000
      0.05000000	    -25.06935720	      4.56410353	      1.59725058	      0.07686231	      1.28541845	      0.00122376	     83.01865624	     -6.35815814	      7.30866768	     68.88783690	      1.20231957	    -11.40907532	    -14.49683220	      0.00000000	     69.94691363	      3.36889463	      4.79738039	     84.13393672	      1.46841421	    -22.00317628	    -20.85623590	      0.00000000	    -33.02484660	     -5.54528831	     -0.85563652	     65.17147593	     12.97451595	    -53.92948513	     42.25576666	     79.15466064	      0.00000000	      0.00000000	     60.85605020	      4.51741770	    -22.17729024	     36.51869248	      6.83675197	      0.00000000	      0.00000000
      0.06700000	    -24.77944794	      4.38638483	      2.77284582	      0.07628070	      1.28612383	     -0.00032471	     78.36267116	     -7.76106686	      5.56858767	     62.72930782	      1.09483296	    -13.84514729	    -15.71757724	      0.00000000	     73.22152887	      4.58510496	      5.84798024	     89.81253769	      1.56752449	    -21.15965666	    -19.96914695	      0.00000000	    -33.28847888	     -4.93474520	     -1.65779257	     65.12763905	     12.84970670	    -54.20840289	     42.26969526	     78.98648164	      0.00000000	      0.00000000	     60.92311150	      4.71510022	    -22.04756664	     36.48511851	      6.78820784	      0.00000000	      0.00000000
      0.08300000	    -24.74788206	      4.54894375	      4.12771768	      0.07578181	      1.28633388	     -0.00232712	     73.76060093	     -9.48361269	      3.67605064	     56.63899527	      0.98853695	    -16.81721093	    -15.57387290	      0.00000000	     77.14979721	      5.95359949	      6.03552901	     95.14235804	      1.66054741	    -20.44625317	    -19.72616791	      0.00000000	    -33.32592262	     -4.66261462	     -2.69914843	     64.86428778	     12.68035627	    -54.47505131	     42.48382311	     78.76480198	      0.00000000	      0.00000000	     61.09003684	      4.95375207	    -21.82042160	     36.28638036	      6.96743399	      0.00000000	      0.00000000
      0.10000000	    -24.82880848	      4.34569530	      5.48633205	      0.07528292	      1.28631099	     -0.00421688	     69.28544812	    -10.85087857	      1.49948219	     51.19474438	      0.89351685	    -19.41588315	    -15.63400613	      0.00000000	     81.15414578	      7.20401744	      6.36590437	     99.60046209	      1.73835600	    -19.46724717	    -19.42615839	      0.00000000	    -33.23336635	     -4.05502371	     -3.57298460	     64.66718854	     12.47861289	    -54.78229208	     42.52443541	     78.64236592	      0.00000000	      0.00000000	     61.21435924	      5.15578126	    -21.52920028	     36.11351422	      7.03829907	      0.00000000	      0.00000000
      0.11700000	    -25.09707449	      4.05217434	      6.65121437	      0.07464378	      1.28595628	     -0.00598682	     65.19564438	    -11.86014836	     -0.23117147	     46.64345150	      0.81408180	    -21.50072199	    -15.08129026	      0.00000000	     85.22549123	      8.34998362	      6.58075253	    103.14138649	      1.80015679	    -17.86452756	    -19.09314180	      0.00000000	    -32.94841098	     -3.46565641	     -4.23168115	     64.50889166	     12.14994883	    -55.03353634	     42.41952709	     78.60385535	      0.00000000	      0.00000000	     61.28073444	      5.31272104	    -21.19753252	     35.94495204	      7.03672404	      0.00000000	      0.00000000
      0.13300000	    -25.29264092	      3.43081522	      7.83325019	      0.07413054	      1.28567358	     -0.00761665	     61.06446501	    -12.56370942	     -2.10031983	     42.83811411	      0.74766614	    -22.86965389	    -14.28207125	      0.00000000	     89.17536720	      9.42595971	      6.99835757	    105.84854481	      1.84740562	    -15.63276707	    -17.84964553	      0.00000000	    -32.72950659	     -2.56339670	     -4.76076058	     64.38862748	     11.72433042	    -55.18952858	     42.21138409	     78.77535357	      0.00000000	      0.00000000	     61.34637223	      5.37764439	    -20.56519892	     35.78953403	      6.59671961	      0.00000000	      0.00000000
      0.15000000	    -25.67397634	      3.33293511	      8.63065497	      0.07377539	      1.28497387	     -0.00874857	     58.07150576	    -13.05527617	     -2.88808881	     40.50626661	      0.70696772	    -24.09758203	    -13.74724490	      0.00000000	     92.82390201	     10.28566992	      6.52886299	    107.37329971	      1.87401761	    -13.63954444	    -17.87042719	      0.00000000	    -32.35934037	     -2.35065465	     -5.22514822	     64.16163997	     11.32406770	    -55.23763806	     42.05771773	     78.65400869	      0.00000000	      0.00000000	     61.41303244	      5.49114871	    -20.24400144	     35.56796756	      6.76842222	      0.00000000	      0.00000000
      0.16700000	    -25.77615148	      3.27749208	      9.49784217	      0.07376496	      1.28484317	     -0.00971798	     55.61017707	    -13.52887363	     -3.76439922	     39.94928984	      0.69724664	    -24.66983480	    -14.81676635	      0.00000000	     95.66150200	     11.34333177	      6.01874072	    107.54146237	      1.87695260	    -11.98233351	    -17.57194596	      0.00000000	    -32.36040684	     -2.01825543	     -5.73771834	     63.98115077	     10.79962390	    -54.84849165	     41.88400507	     78.75922912	      0.00000000	      0.00000000	     61.49745161	      5.39024991	    -19.32312775	     35.40354319	      6.56910083	      0.00000000	      0.00000000
      0.18300000	    -25.86730554	      3.36823929	      9.82730280	      0.07385969	      1.28461573	     -0.00998224	     54.04743664	    -13.59939632	     -3.69644307	     41.01607480	      0.71586555	    -24.50484058	    -15.84270836	      0.00000000	     97.92939996	     12.00481825	      5.32511238	    106.68930494	      1.86207965	    -10.35117180	    -17.99622504	      0.00000000	    -32.40341449	     -2.04387754	     -5.79753030	     63.93545151	     10.23911319	    -54.60708262	     41.61167946	     78.53405738	      0.00000000	      0.00000000	     61.62713103	      5.53538746	    -18.98338025	     35.29450510	      6.98933568	      0.00000000	      0.00000000
      0.20000000	    -26.03336817	      3.65887109	     10.19016391	      0.07404007	      1.28460789	     -0.00999288	     53.49573790	    -13.86602883	     -3.49672620	     43.59030749	      0.76079439	    -24.31318247	    -18.19891709	      0.00000000	     99.37804936	     12.62541346	      4.44874480	    104.60521166	      1.82570536	     -9.41298033	    -18.59468683	      0.00000000	    -32.41183798	     -2.22888143	     -6.15749773	     63.75122998	      9.85487574	    -53.94956581	     41.50911803	     78.45560821	      0.00000000	      0.00000000	     61.71823599	      5.31107836	    -18.27027969	     35.18204311	      7.10540372	      0.00000000	      0.00000000
      0.21700000	    -25.87370872	      3.86144001	     10.07639927	      0.07441974	      1.28481821	     -0.00952457	     53.65928009	    -13.71235586	     -2.73345253	     47.69195656	      0.83238167	    -23.62801688	    -19.98658668	      0.00000000	     99.52039305	     12.84336456	      4.03970939	    101.49394779	      1.77140356	     -8.67763500	    -18.91416413	      0.00000000	    -32.71351874	     -2.42077205	     -6.09224858	     63.82188438	      9.69322883	    -53.72438557	     41.41785123	     78.20898963	      0.00000000	      0.00000000	     61.82882601	      5.22902544	    -17.96217219	     35.24172747	      7.37094780	      0.00000000	      0.00000000
      0.23300000	    -25.84007594	      4.19837320	      9.78852980	      0.07475824	      1.28499465	     -0.00876017	     54.88904924	    -13.51587552	     -1.51082263	     53.08655634	      0.92653520	    -23.41625964	    -22.03882375	      0.00000000	     98.86833157	     12.86987202	      3.67720764	     97.27329385	      1.69773925	     -8.43844724	    -19.35031896	      0.00000000	    -32.89691961	     -2.81493510	     -5.98940460	     63.87922311	      9.74078591	    -53.70146743	     41.55297628	     78.29861001	      0.00000000	      0.00000000	     61.87518539	      5.12967137	    -17.66216759	     35.40817336	      6.98722784	      0.00000000	      0.00000000
      0.25000000	    -25.66828970	      4.29932829	      9.27412901	      0.07510592	      1.28532612	     -0.00785777	     56.50595805	    -12.98900922	     -0.12632917	     58.98855645	      1.02954453	    -22.81363348	    -23.22544481	      0.00000000	     97.22698470	     12.54751458	      3.72724792	     92.48108560	      1.61409944	     -8.56589702	    -19.47935932	      0.00000000	    -33.12013320	     -3.08576233	     -5.56019302	     63.98674356	      9.77275294	    -53.72770150	     41.62732938	     78.43415043	      0.00000000	      0.00000000	     61.92451104	      5.06776017	    -17.46616727	     35.55128912	      6.62891209	      0.00000000	      0.00000000
